<?xml version="1.0" encoding="UTF-8"?>
<svg width="256px" height="256px" viewBox="0 0 256 256" version="1.1" xmlns="http://www.w3.org/2000/svg" xmlns:xlink="http://www.w3.org/1999/xlink">
    <!-- Generator: Sketch 53.2 (72643) - https://sketchapp.com -->
    <title>icon-256x256</title>
    <desc>Created with Sketch.</desc>
    <g id="Page-1" stroke="none" stroke-width="1" fill="none" fill-rule="evenodd">
        <g id="icon-256x256">
            <g id="wpcw-icon" transform="translate(16.500000, 10.000000)">
                <g id="Gears" transform="translate(-0.000000, 0.000000)">
                    <path d="M81.3512627,30.4247952 L64.0970709,10.106397 L47.8798858,19.3325082 L57.0881023,44.193705 C52.7272178,47.7650522 48.6975614,51.7472469 45.090603,56.078414 L19.8261705,46.9577728 L10.457048,62.9274332 L31.072676,79.9358744 C29.0941423,85.1028693 27.6192323,90.5086866 26.6920929,96.0991848 L0.193868364,100.659543 L0.193868364,119.111767 L26.6741958,123.689607 C27.6191658,129.26263 29.0941423,134.668414 31.072676,139.835429 L10.457048,156.84389 L19.8261705,172.813473 L49.5416612,161.437909 C49.5573312,161.437909 47.0570684,158.199391 47.0570684,158.199391 L21.4925452,168.355877 L15.2671318,157.31966 C15.2671318,157.31966 31.072676,144.4894 36.4402102,140.161895 C33.6656188,133.602352 31.8117009,126.570923 30.955907,119.961406 C19.5995821,118.236514 4.57218402,115.921703 4.57218402,115.921703 L4.57218402,104.29153 C4.57218402,104.29153 24.9732036,100.974493 30.8182866,100.119467 C31.9774009,90.6665186 34.3880137,83.8475902 36.4402102,78.9617084 C29.6500687,73.5766186 15.2671318,62.2702446 15.2671318,62.2702446 C15.2671318,62.2702446 19.538307,55.2353525 21.4925452,52.0794475 C32.1386606,55.6851953 43.1403333,59.5618087 47.0570684,60.9159159 C53.4696853,52.5272729 61.3761642,46.49669 62.4020415,45.9150928 C60.9981977,42.4956067 52.3332773,20.8229333 52.3332773,20.8229333 L63.4805385,14.4670643 C63.4805385,14.4670643 76.7911142,31.6243376 80.1129151,35.85898 C84.0260916,34.1061927 92.0529993,31.4008144 101.428302,30.194454 C103.003671,19.757002 105.271745,4.77232401 105.271745,4.77232401 L111.467724,4.77232401 L111.446212,1.42108547e-14 L102.413915,1.42108547e-14 L97.7651004,26.0759992 C97.7651004,26.0759992 86.6027088,28.4732638 81.3512627,30.4247952 Z" id="Green-Gear" fill="#9FD34B"></path>
                    <path d="M192.67348,30.4247952 L175.419288,10.106397 L159.202103,19.3325082 L168.410319,44.193705 C164.049435,47.7650522 160.019779,51.7472469 156.41282,56.078414 L131.148388,46.9577728 L121.779265,62.9274332 L142.394893,79.9358744 C140.416359,85.1028693 138.941449,90.5086866 138.01431,96.0991848 L111.516085,100.659543 L111.516085,119.111767 L137.996413,123.689607 C138.941383,129.26263 140.416359,134.668414 142.394893,139.835429 L121.779265,156.84389 L131.148388,172.813473 L160.863878,161.437909 C160.879548,161.437909 158.379286,158.199391 158.379286,158.199391 L132.814762,168.355877 L126.589349,157.31966 C126.589349,157.31966 142.394893,144.4894 147.762427,140.161895 C144.987836,133.602352 143.133918,126.570923 142.278124,119.961406 C130.921799,118.236514 115.894401,115.921703 115.894401,115.921703 L115.894401,104.29153 C115.894401,104.29153 136.295421,100.974493 142.140504,100.119467 C143.299618,90.6665186 145.710231,83.8475902 147.762427,78.9617084 C140.972286,73.5766186 126.589349,62.2702446 126.589349,62.2702446 C126.589349,62.2702446 130.860524,55.2353525 132.814762,52.0794475 C143.460878,55.6851953 154.46255,59.5618087 158.379286,60.9159159 C164.791902,52.5272729 172.698381,46.49669 173.724259,45.9150928 C172.320415,42.4956067 163.655494,20.8229333 163.655494,20.8229333 L174.802756,14.4670643 C174.802756,14.4670643 188.113331,31.6243376 191.435132,35.85898 C195.348309,34.1061927 203.375216,31.4008144 212.750519,30.194454 C214.325888,19.757002 216.593962,4.77232401 216.593962,4.77232401 L222.789941,4.77232401 L222.768429,1.42108547e-14 L213.736132,1.42108547e-14 L209.087317,26.0759992 C209.087317,26.0759992 197.924926,28.4732638 192.67348,30.4247952 Z" id="Blue-Gear" fill="#65C2FB" transform="translate(167.153013, 86.406737) scale(-1, 1) translate(-167.153013, -86.406737) "></path>
                </g>
                <g id="Blue-Student" transform="translate(148.590197, 115.879997) rotate(62.000000) translate(-148.590197, -115.879997) translate(104.090197, 66.379997)" fill="#65C2FB">
                    <path d="M31.8355878,76.7990871 C28.9826653,62.0276359 30.4535541,57.7766254 28.0363836,53.429833 C22.6093506,43.670412 -5.68434189e-14,37.6435535 -5.68434189e-14,37.6435535 C-5.68434189e-14,37.6435535 22.9437875,41.7614387 29.9106378,37.6435533 C42.4098919,30.2556385 39.7656172,4.23118001 39.7656172,4.23118001 C39.7656172,4.23118001 42.9580821,31.9718849 50.2648285,41.5243161 C57.8956235,51.5003902 88.1871682,58.7467366 88.1871682,58.7467366 C88.1871682,58.7467366 54.013337,50.5144987 44.0935851,57.6930943 C34.1738331,64.8716899 37.5470677,98.3369942 37.5470677,98.3369942 C37.5470677,98.3369942 34.6885102,91.5705385 31.8355878,76.7990871 L31.8355878,76.7990871 L31.8355878,76.7990871 Z" id="Shape"></path>
                    <ellipse id="Oval" cx="27.4386273" cy="29.195142" rx="7.17625638" ry="7.19300601"></ellipse>
                    <path d="M15.0620432,9.57383016 L2.806497,27.8686321 L10.4867236,25.2037494 L11.7427356,28.4989026 L11.5649033,33.0938636 L15.0620434,31.6844569 L12.656616,28.1875096 L11.3834827,24.7814875 L14.6882585,22.5185794 L18.0875394,27.8686313 C18.0875394,27.8686313 18.9759205,24.0905858 22.4063548,21.8764439 C25.6971637,19.752422 29.1120452,20.2465143 29.1120452,20.2465143 C29.1120452,20.2465143 28.8932671,18.0235698 29.1120452,16.0259431 C29.2350155,14.9031212 29.9463605,12.8026776 29.9463605,12.8026776 L27.1316588,11.827864 L34.5608608,0.295978553 L15.0620432,9.57383016 L15.0620432,9.57383016 L15.0620432,9.57383016 Z" id="Path-2"></path>
                </g>
                <g id="Green-Student" transform="translate(105.634176, 106.357554) rotate(27.000000) translate(-105.634176, -106.357554) translate(61.134176, 56.857554)" fill="#9FD34B">
                    <path d="M31.8355878,76.7990871 C28.9826653,62.0276359 30.4535541,57.7766254 28.0363836,53.429833 C22.6093506,43.670412 -1.13686838e-13,37.6435535 -1.13686838e-13,37.6435535 C-1.13686838e-13,37.6435535 22.9437875,41.7614387 29.9106378,37.6435533 C42.4098919,30.2556385 39.7656172,4.23118001 39.7656172,4.23118001 C39.7656172,4.23118001 42.9580821,31.9718849 50.2648285,41.5243161 C57.8956235,51.5003902 88.1871682,58.7467366 88.1871682,58.7467366 C88.1871682,58.7467366 54.013337,50.5144987 44.0935851,57.6930943 C34.1738331,64.8716899 37.5470677,98.3369942 37.5470677,98.3369942 C37.5470677,98.3369942 34.6885102,91.5705385 31.8355878,76.7990871 L31.8355878,76.7990871 L31.8355878,76.7990871 Z" id="Blue-Student"></path>
                    <ellipse id="Oval" cx="27.4386273" cy="29.195142" rx="7.17625638" ry="7.19300601"></ellipse>
                    <path d="M15.0620432,9.57383016 L2.806497,27.8686321 L10.4867236,25.2037494 L11.7427356,28.4989026 L11.5649033,33.0938636 L15.0620434,31.6844569 L12.656616,28.1875096 L11.3834827,24.7814875 L14.6882585,22.5185794 L18.0875394,27.8686313 C18.0875394,27.8686313 18.9759205,24.0905858 22.4063548,21.8764439 C25.6971637,19.752422 29.1120452,20.2465143 29.1120452,20.2465143 C29.1120452,20.2465143 28.8932671,18.0235698 29.1120452,16.0259431 C29.2350155,14.9031212 29.9463605,12.8026776 29.9463605,12.8026776 L27.1316588,11.827864 L34.5608608,0.295978553 L15.0620432,9.57383016 L15.0620432,9.57383016 L15.0620432,9.57383016 Z" id="Path-2"></path>
                </g>
                <g id="Blue-Student" transform="translate(25.411765, 77.853712)" fill="#65C2FB">
                    <path d="M28.0363836,53.429833 C22.6093506,43.670412 0,37.6435535 0,37.6435535 C0,37.6435535 22.9437875,41.7614387 29.9106378,37.6435533 C42.4098919,30.2556385 39.7656172,4.23118001 39.7656172,4.23118001 C39.7656172,4.23118001 42.9580821,31.9718849 50.2648285,41.5243161 C57.8956235,51.5003902 88.1871682,58.7467366 88.1871682,58.7467366 C88.1871682,58.7467366 54.013337,50.5144987 44.0935851,57.6930943 C34.1738331,64.8716899 37.5470677,98.3369942 37.5470677,98.3369942 C37.5470677,98.3369942 34.6885102,91.5705385 31.8355878,76.7990871 C28.9826653,62.0276359 30.4535541,57.7766254 28.0363836,53.429833 L28.0363836,53.429833 Z" id="Shape"></path>
                    <ellipse id="Oval" cx="27.4386273" cy="29.195142" rx="7.17625638" ry="7.19300601"></ellipse>
                    <path d="M15.0620432,9.57383016 L2.806497,27.8686321 L10.4867236,25.2037494 L11.7427356,28.4989026 L11.5649033,33.0938636 L15.0620434,31.6844569 L12.656616,28.1875096 L11.3834827,24.7814875 L14.6882585,22.5185794 L18.0875394,27.8686313 C18.0875394,27.8686313 18.9759205,24.0905858 22.4063548,21.8764439 C25.6971637,19.752422 29.1120452,20.2465143 29.1120452,20.2465143 C29.1120452,20.2465143 28.8932671,18.0235698 29.1120452,16.0259431 C29.2350155,14.9031212 29.9463605,12.8026776 29.9463605,12.8026776 L27.1316588,11.827864 L34.5608608,0.295978553 L15.0620432,9.57383016 L15.0620432,9.57383016 L15.0620432,9.57383016 Z" id="Path-2"></path>
                </g>
            </g>
            <path d="M73.577,194.928 L70.291,217 L67.315,217 L64.897,202.678 L64.835,202.678 L62.448,217 L59.472,217 L56.186,194.928 L59.534,194.928 L61.115,208.94 L61.177,208.94 L63.657,194.928 L66.075,194.928 L68.648,209.281 L68.71,209.281 L70.229,194.928 L73.577,194.928 Z M75.001,217 L75.001,194.928 L79.744,194.928 C80.6120044,194.928 81.3766634,195.041666 82.038,195.269 C82.6993367,195.496334 83.298664,195.89933 83.836,196.478 C84.373336,197.05667 84.7453323,197.733496 84.952,198.5085 C85.1586677,199.283504 85.262,200.332327 85.262,201.655 C85.262,202.647005 85.2051672,203.483997 85.0915,204.166 C84.9778328,204.848003 84.7350019,205.488664 84.363,206.088 C83.9289978,206.811337 83.350337,207.374498 82.627,207.7775 C81.9036631,208.180502 80.9530059,208.382 79.775,208.382 L78.163,208.382 L78.163,217 L75.001,217 Z M78.163,197.904 L78.163,205.406 L79.682,205.406 C80.3226699,205.406 80.8186649,205.313001 81.17,205.127 C81.5213351,204.940999 81.7796659,204.682668 81.945,204.352 C82.1103342,204.041998 82.2084999,203.659669 82.2395,203.205 C82.2705002,202.750331 82.286,202.244003 82.286,201.686 C82.286,201.169331 82.2756668,200.678502 82.255,200.2135 C82.2343332,199.748498 82.1413342,199.340335 81.976,198.989 C81.8106659,198.637665 81.5626683,198.369001 81.232,198.183 C80.9013317,197.996999 80.4260031,197.904 79.806,197.904 L78.163,197.904 Z M102.308,210.707 L102.308,212.071 C102.308,212.753003 102.178835,213.39883 101.9205,214.0085 C101.662165,214.61817 101.305669,215.160664 100.851,215.636 C100.396331,216.111336 99.8641697,216.488499 99.2545,216.7675 C98.6448303,217.046501 97.9886702,217.186 97.286,217.186 C96.6866637,217.186 96.0770031,217.103334 95.457,216.938 C94.8369969,216.772666 94.2790025,216.483335 93.783,216.07 C93.2869975,215.656665 92.8788349,215.124503 92.5585,214.4735 C92.2381651,213.822497 92.078,212.990672 92.078,211.978 L92.078,199.826 C92.078,199.102663 92.2019988,198.431003 92.45,197.811 C92.6980012,197.190997 93.0493311,196.653669 93.504,196.199 C93.9586689,195.744331 94.5011635,195.387835 95.1315,195.1295 C95.7618365,194.871165 96.4593295,194.742 97.224,194.742 C98.7120074,194.742 99.9209954,195.227662 100.851,196.199 C101.305669,196.674336 101.662165,197.237497 101.9205,197.8885 C102.178835,198.539503 102.308,199.24733 102.308,200.012 L102.308,201.252 L99.146,201.252 L99.146,200.198 C99.146,199.577997 98.9703351,199.040669 98.619,198.586 C98.2676649,198.131331 97.7923363,197.904 97.193,197.904 C96.4076627,197.904 95.8858346,198.146831 95.6275,198.6325 C95.3691654,199.118169 95.24,199.732996 95.24,200.477 L95.24,211.761 C95.24,212.40167 95.3794986,212.938998 95.6585,213.373 C95.9375014,213.807002 96.4386631,214.024 97.162,214.024 C97.3686677,214.024 97.5908322,213.987834 97.8285,213.9155 C98.0661679,213.843166 98.2883323,213.724334 98.495,213.559 C98.6810009,213.393666 98.8359994,213.166335 98.96,212.877 C99.0840006,212.587665 99.146,212.226002 99.146,211.792 L99.146,210.707 L102.308,210.707 Z M103.856,206.553 C103.856,205.91233 103.897333,205.323336 103.98,204.786 C104.062667,204.248664 104.217666,203.773335 104.445,203.36 C104.817002,202.677997 105.349163,202.130335 106.0415,201.717 C106.733837,201.303665 107.575995,201.097 108.568,201.097 C109.560005,201.097 110.402163,201.303665 111.0945,201.717 C111.786837,202.130335 112.318998,202.677997 112.691,203.36 C112.918334,203.773335 113.073333,204.248664 113.156,204.786 C113.238667,205.323336 113.28,205.91233 113.28,206.553 L113.28,211.73 C113.28,212.37067 113.238667,212.959664 113.156,213.497 C113.073333,214.034336 112.918334,214.509665 112.691,214.923 C112.318998,215.605003 111.786837,216.152665 111.0945,216.566 C110.402163,216.979335 109.560005,217.186 108.568,217.186 C107.575995,217.186 106.733837,216.979335 106.0415,216.566 C105.349163,216.152665 104.817002,215.605003 104.445,214.923 C104.217666,214.509665 104.062667,214.034336 103.98,213.497 C103.897333,212.959664 103.856,212.37067 103.856,211.73 L103.856,206.553 Z M107.018,212.226 C107.018,212.825336 107.157499,213.274832 107.4365,213.5745 C107.715501,213.874168 108.092664,214.024 108.568,214.024 C109.043336,214.024 109.420499,213.874168 109.6995,213.5745 C109.978501,213.274832 110.118,212.825336 110.118,212.226 L110.118,206.057 C110.118,205.457664 109.978501,205.008168 109.6995,204.7085 C109.420499,204.408832 109.043336,204.259 108.568,204.259 C108.092664,204.259 107.715501,204.408832 107.4365,204.7085 C107.157499,205.008168 107.018,205.457664 107.018,206.057 L107.018,212.226 Z M124.5,201.283 L124.5,217 L121.338,217 L121.338,215.481 L121.276,215.481 C120.945332,215.977002 120.547502,216.385165 120.0825,216.7055 C119.617498,217.025835 119.023337,217.186 118.3,217.186 C117.907331,217.186 117.514669,217.118834 117.122,216.9845 C116.729331,216.850166 116.378002,216.628002 116.068,216.318 C115.757998,216.007998 115.510001,215.610169 115.324,215.1245 C115.137999,214.638831 115.045,214.04467 115.045,213.342 L115.045,201.283 L118.207,201.283 L118.207,212.164 C118.207,212.74267 118.341332,213.197332 118.61,213.528 C118.878668,213.858668 119.260998,214.024 119.757,214.024 C120.356336,214.024 120.769666,213.838002 120.997,213.466 C121.224334,213.093998 121.338,212.55667 121.338,211.854 L121.338,201.283 L124.5,201.283 Z M126.544,217 L126.544,201.283 L129.706,201.283 L129.706,202.957 C130.34667,202.37833 130.976997,201.923668 131.597,201.593 C132.217003,201.262332 132.981662,201.097 133.891,201.097 L133.891,204.445 C133.580998,204.320999 133.260668,204.259 132.93,204.259 C132.599332,204.259 132.242835,204.315833 131.8605,204.4295 C131.478165,204.543167 131.132002,204.734332 130.822,205.003 C130.491332,205.271668 130.222668,205.622998 130.016,206.057 C129.809332,206.491002 129.706,207.02833 129.706,207.669 L129.706,217 L126.544,217 Z M140.337,205.685 C140.316333,205.147664 140.145835,204.744668 139.8255,204.476 C139.505165,204.207332 139.138335,204.073 138.725,204.073 C138.228998,204.073 137.846668,204.233165 137.578,204.5535 C137.309332,204.873835 137.175,205.240665 137.175,205.654 C137.175,205.943335 137.247333,206.227499 137.392,206.5065 C137.536667,206.785501 137.908664,207.038666 138.508,207.266 L140.368,208.01 C141.546006,208.464669 142.357164,209.084663 142.8015,209.87 C143.245836,210.655337 143.468,211.512995 143.468,212.443 C143.468,213.104337 143.349168,213.719164 143.1115,214.2875 C142.873832,214.855836 142.548335,215.356998 142.135,215.791 C141.721665,216.225002 141.22567,216.565999 140.647,216.814 C140.06833,217.062001 139.438003,217.186 138.756,217.186 C137.47466,217.186 136.400004,216.783004 135.532,215.977 C135.097998,215.584331 134.746668,215.093503 134.478,214.5045 C134.209332,213.915497 134.064667,213.228337 134.044,212.443 L137.02,212.443 C137.082,212.877002 137.231832,213.279998 137.4695,213.652 C137.707168,214.024002 138.125664,214.21 138.725,214.21 C139.179669,214.21 139.587832,214.060168 139.9495,213.7605 C140.311168,213.460832 140.492,213.042336 140.492,212.505 C140.492,212.070998 140.378334,211.699002 140.151,211.389 C139.923666,211.078998 139.510336,210.810334 138.911,210.583 L137.392,210.025 C136.399995,209.652998 135.619836,209.10017 135.0515,208.3665 C134.483164,207.63283 134.199,206.739005 134.199,205.685 C134.199,205.023663 134.322999,204.408836 134.571,203.8405 C134.819001,203.272164 135.159998,202.781335 135.594,202.368 C136.007335,201.954665 136.492997,201.639501 137.051,201.4225 C137.609003,201.205499 138.20833,201.097 138.849,201.097 C139.48967,201.097 140.083831,201.210666 140.6315,201.438 C141.179169,201.665334 141.649331,201.985665 142.042,202.399 C142.434669,202.812335 142.744666,203.303164 142.972,203.8715 C143.199334,204.439836 143.313,205.04433 143.313,205.685 L140.337,205.685 Z M154.099,210.335 L147.837,210.335 L147.837,212.474 C147.837,212.970002 147.976499,213.352332 148.2555,213.621 C148.534501,213.889668 148.911664,214.024 149.387,214.024 C149.986336,214.024 150.384166,213.848335 150.5805,213.497 C150.776834,213.145665 150.895666,212.794335 150.937,212.443 L154.099,212.443 C154.099,213.827674 153.675338,214.943662 152.828,215.791 C152.414665,216.225002 151.91867,216.565999 151.34,216.814 C150.76133,217.062001 150.110337,217.186 149.387,217.186 C148.394995,217.186 147.552837,216.979335 146.8605,216.566 C146.168163,216.152665 145.636002,215.605003 145.264,214.923 C145.036666,214.509665 144.881667,214.034336 144.799,213.497 C144.716333,212.959664 144.675,212.37067 144.675,211.73 L144.675,206.553 C144.675,205.91233 144.716333,205.323336 144.799,204.786 C144.881667,204.248664 145.036666,203.773335 145.264,203.36 C145.636002,202.677997 146.168163,202.130335 146.8605,201.717 C147.552837,201.303665 148.394995,201.097 149.387,201.097 C150.110337,201.097 150.766497,201.220999 151.3555,201.469 C151.944503,201.717001 152.445665,202.057998 152.859,202.492 C153.685671,203.422005 154.099,204.58966 154.099,205.995 L154.099,210.335 Z M147.837,207.855 L150.937,207.855 L150.937,206.057 C150.937,205.457664 150.797501,205.008168 150.5185,204.7085 C150.239499,204.408832 149.862336,204.259 149.387,204.259 C148.911664,204.259 148.534501,204.408832 148.2555,204.7085 C147.976499,205.008168 147.837,205.457664 147.837,206.057 L147.837,207.855 Z M171.147,201.283 L167.427,217 L164.637,217 L162.901,207.669 L162.839,207.669 L161.103,217 L158.313,217 L154.593,201.283 L157.941,201.283 L159.863,211.048 L159.925,211.048 L161.692,201.283 L164.172,201.283 L165.846,211.048 L165.908,211.048 L167.799,201.283 L171.147,201.283 Z M177.717,217 L177.717,215.388 L177.655,215.388 C177.241665,215.96667 176.823169,216.410998 176.3995,216.721 C175.975831,217.031002 175.38167,217.186 174.617,217.186 C174.244998,217.186 173.867835,217.129167 173.4855,217.0155 C173.103165,216.901833 172.736335,216.690002 172.385,216.38 C172.033665,216.090665 171.749501,215.672169 171.5325,215.1245 C171.315499,214.576831 171.207,213.869004 171.207,213.001 C171.207,212.112329 171.279333,211.33217 171.424,210.6605 C171.568667,209.98883 171.837331,209.425669 172.23,208.971 C172.602002,208.536998 173.10833,208.211501 173.749,207.9945 C174.38967,207.777499 175.205995,207.669 176.198,207.669 L176.539,207.669 C176.663001,207.669 176.776666,207.679333 176.88,207.7 C176.983334,207.720667 177.107333,207.731 177.252,207.731 C177.396667,207.731 177.551666,207.741333 177.717,207.762 L177.717,206.119 C177.717,205.581664 177.603334,205.137335 177.376,204.786 C177.148666,204.434665 176.735336,204.259 176.136,204.259 C175.722665,204.259 175.345502,204.393332 175.0045,204.662 C174.663498,204.930668 174.441334,205.323331 174.338,205.84 L171.269,205.84 C171.351667,204.43466 171.826996,203.298004 172.695,202.43 C173.108335,202.016665 173.60433,201.691168 174.183,201.4535 C174.76167,201.215832 175.412663,201.097 176.136,201.097 C176.797337,201.097 177.41733,201.200332 177.996,201.407 C178.57467,201.613668 179.080998,201.923665 179.515,202.337 C179.928335,202.750335 180.258999,203.266997 180.507,203.887 C180.755001,204.507003 180.879,205.230329 180.879,206.057 L180.879,217 L177.717,217 Z M177.717,210.242 C177.365665,210.18 177.076334,210.149 176.849,210.149 C176.166997,210.149 175.583169,210.309165 175.0975,210.6295 C174.611831,210.949835 174.369,211.533662 174.369,212.381 C174.369,212.980336 174.513665,213.465998 174.803,213.838 C175.092335,214.210002 175.495331,214.396 176.012,214.396 C176.549336,214.396 176.967832,214.220335 177.2675,213.869 C177.567168,213.517665 177.717,213.02167 177.717,212.381 L177.717,210.242 Z M182.644,217 L182.644,201.283 L185.806,201.283 L185.806,202.957 C186.44667,202.37833 187.076997,201.923668 187.697,201.593 C188.317003,201.262332 189.081662,201.097 189.991,201.097 L189.991,204.445 C189.680998,204.320999 189.360668,204.259 189.03,204.259 C188.699332,204.259 188.342835,204.315833 187.9605,204.4295 C187.578165,204.543167 187.232002,204.734332 186.922,205.003 C186.591332,205.271668 186.322668,205.622998 186.116,206.057 C185.909332,206.491002 185.806,207.02833 185.806,207.669 L185.806,217 L182.644,217 Z M199.847,210.335 L193.585,210.335 L193.585,212.474 C193.585,212.970002 193.724499,213.352332 194.0035,213.621 C194.282501,213.889668 194.659664,214.024 195.135,214.024 C195.734336,214.024 196.132166,213.848335 196.3285,213.497 C196.524834,213.145665 196.643666,212.794335 196.685,212.443 L199.847,212.443 C199.847,213.827674 199.423338,214.943662 198.576,215.791 C198.162665,216.225002 197.66667,216.565999 197.088,216.814 C196.50933,217.062001 195.858337,217.186 195.135,217.186 C194.142995,217.186 193.300837,216.979335 192.6085,216.566 C191.916163,216.152665 191.384002,215.605003 191.012,214.923 C190.784666,214.509665 190.629667,214.034336 190.547,213.497 C190.464333,212.959664 190.423,212.37067 190.423,211.73 L190.423,206.553 C190.423,205.91233 190.464333,205.323336 190.547,204.786 C190.629667,204.248664 190.784666,203.773335 191.012,203.36 C191.384002,202.677997 191.916163,202.130335 192.6085,201.717 C193.300837,201.303665 194.142995,201.097 195.135,201.097 C195.858337,201.097 196.514497,201.220999 197.1035,201.469 C197.692503,201.717001 198.193665,202.057998 198.607,202.492 C199.433671,203.422005 199.847,204.58966 199.847,205.995 L199.847,210.335 Z M193.585,207.855 L196.685,207.855 L196.685,206.057 C196.685,205.457664 196.545501,205.008168 196.2665,204.7085 C195.987499,204.408832 195.610336,204.259 195.135,204.259 C194.659664,204.259 194.282501,204.408832 194.0035,204.7085 C193.724499,205.008168 193.585,205.457664 193.585,206.057 L193.585,207.855 Z" id="WPCourseware" fill="#4F4F4F" fill-rule="nonzero"></path>
            <path d="M110.627871,242 L109.595871,237.752 L104.363871,237.752 L103.283871,242 L101.579871,242 L105.899871,225.008 L108.179871,225.008 L112.379871,242 L110.627871,242 Z M107.051871,226.52 L106.955871,226.52 L104.603871,236.408 L109.355871,236.408 L107.051871,226.52 Z M119.914323,242 L119.914323,239.864 L119.866323,239.864 C119.674322,240.584004 119.354325,241.183998 118.906323,241.664 C118.45832,242.144002 117.826327,242.384 117.010323,242.384 C116.40232,242.384 115.866325,242.224002 115.402323,241.904 C114.93832,241.583998 114.546324,241.140003 114.226323,240.572 C113.906321,240.003997 113.662323,239.332004 113.494323,238.556 C113.326322,237.779996 113.242323,236.928005 113.242323,236 C113.242323,235.071995 113.322322,234.224004 113.482323,233.456 C113.642323,232.687996 113.878321,232.028003 114.190323,231.476 C114.502324,230.923997 114.89432,230.492002 115.366323,230.18 C115.838325,229.867998 116.37832,229.712 116.986323,229.712 C117.706326,229.712 118.31432,229.931998 118.810323,230.372 C119.306325,230.812002 119.642322,231.391996 119.818323,232.112 L119.866323,232.112 L119.866323,223.856 L121.450323,223.856 L121.450323,242 L119.914323,242 Z M119.914323,236.048 C119.914323,235.343996 119.862323,234.688003 119.758323,234.08 C119.654322,233.471997 119.494324,232.948002 119.278323,232.508 C119.062322,232.067998 118.794324,231.720001 118.474323,231.464 C118.154321,231.207999 117.786325,231.08 117.370323,231.08 C116.93832,231.08 116.566324,231.207999 116.254323,231.464 C115.942321,231.720001 115.682324,232.067998 115.474323,232.508 C115.266322,232.948002 115.114323,233.471997 115.018323,234.08 C114.922322,234.688003 114.874323,235.343996 114.874323,236.048 C114.874323,236.736003 114.922322,237.379997 115.018323,237.98 C115.114323,238.580003 115.266322,239.103998 115.474323,239.552 C115.682324,240.000002 115.942321,240.351999 116.254323,240.608 C116.566324,240.864001 116.93832,240.992 117.370323,240.992 C117.802325,240.992 118.174321,240.864001 118.486323,240.608 C118.798324,240.351999 119.062322,240.000002 119.278323,239.552 C119.494324,239.103998 119.654322,238.580003 119.758323,237.98 C119.862323,237.379997 119.914323,236.736003 119.914323,236.048 Z M130.664774,242 L130.664774,239.864 L130.616774,239.864 C130.424773,240.584004 130.104776,241.183998 129.656774,241.664 C129.208772,242.144002 128.576778,242.384 127.760774,242.384 C127.152771,242.384 126.616777,242.224002 126.152774,241.904 C125.688772,241.583998 125.296776,241.140003 124.976774,240.572 C124.656773,240.003997 124.412775,239.332004 124.244774,238.556 C124.076773,237.779996 123.992774,236.928005 123.992774,236 C123.992774,235.071995 124.072773,234.224004 124.232774,233.456 C124.392775,232.687996 124.628773,232.028003 124.940774,231.476 C125.252776,230.923997 125.644772,230.492002 126.116774,230.18 C126.588777,229.867998 127.128771,229.712 127.736774,229.712 C128.456778,229.712 129.064772,229.931998 129.560774,230.372 C130.056777,230.812002 130.392773,231.391996 130.568774,232.112 L130.616774,232.112 L130.616774,223.856 L132.200774,223.856 L132.200774,242 L130.664774,242 Z M130.664774,236.048 C130.664774,235.343996 130.612775,234.688003 130.508774,234.08 C130.404774,233.471997 130.244775,232.948002 130.028774,232.508 C129.812773,232.067998 129.544776,231.720001 129.224774,231.464 C128.904773,231.207999 128.536776,231.08 128.120774,231.08 C127.688772,231.08 127.316776,231.207999 127.004774,231.464 C126.692773,231.720001 126.432775,232.067998 126.224774,232.508 C126.016773,232.948002 125.864775,233.471997 125.768774,234.08 C125.672774,234.688003 125.624774,235.343996 125.624774,236.048 C125.624774,236.736003 125.672774,237.379997 125.768774,237.98 C125.864775,238.580003 126.016773,239.103998 126.224774,239.552 C126.432775,240.000002 126.692773,240.351999 127.004774,240.608 C127.316776,240.864001 127.688772,240.992 128.120774,240.992 C128.552776,240.992 128.924773,240.864001 129.236774,240.608 C129.548776,240.351999 129.812773,240.000002 130.028774,239.552 C130.244775,239.103998 130.404774,238.580003 130.508774,237.98 C130.612775,237.379997 130.664774,236.736003 130.664774,236.048 Z M143.047226,236.072 C143.047226,237.016005 142.951227,237.871996 142.759226,238.64 C142.567225,239.408004 142.295228,240.071997 141.943226,240.632 C141.591224,241.192003 141.155228,241.623998 140.635226,241.928 C140.115223,242.232002 139.535229,242.384 138.895226,242.384 C138.255223,242.384 137.679228,242.232002 137.167226,241.928 C136.655223,241.623998 136.219228,241.192003 135.859226,240.632 C135.499224,240.071997 135.223227,239.408004 135.031226,238.64 C134.839225,237.871996 134.743226,237.016005 134.743226,236.072 C134.743226,235.127995 134.835225,234.264004 135.019226,233.48 C135.203227,232.695996 135.471224,232.024003 135.823226,231.464 C136.175228,230.903997 136.611223,230.472002 137.131226,230.168 C137.651228,229.863998 138.239223,229.712 138.895226,229.712 C139.535229,229.712 140.115223,229.863998 140.635226,230.168 C141.155228,230.472002 141.591224,230.903997 141.943226,231.464 C142.295228,232.024003 142.567225,232.695996 142.759226,233.48 C142.951227,234.264004 143.047226,235.127995 143.047226,236.072 Z M141.415226,236.048 C141.415226,235.343996 141.363226,234.688003 141.259226,234.08 C141.155225,233.471997 140.999227,232.948002 140.791226,232.508 C140.583225,232.067998 140.323227,231.720001 140.011226,231.464 C139.699224,231.207999 139.327228,231.08 138.895226,231.08 C138.463224,231.08 138.087227,231.207999 137.767226,231.464 C137.447224,231.720001 137.187227,232.067998 136.987226,232.508 C136.787225,232.948002 136.635226,233.471997 136.531226,234.08 C136.427225,234.688003 136.375226,235.343996 136.375226,236.048 C136.375226,236.752004 136.427225,237.399997 136.531226,237.992 C136.635226,238.584003 136.787225,239.103998 136.987226,239.552 C137.187227,240.000002 137.447224,240.347999 137.767226,240.596 C138.087227,240.844001 138.463224,240.968 138.895226,240.968 C139.327228,240.968 139.703224,240.844001 140.023226,240.596 C140.343227,240.347999 140.603225,240.000002 140.803226,239.552 C141.003227,239.103998 141.155225,238.584003 141.259226,237.992 C141.363226,237.399997 141.415226,236.752004 141.415226,236.048 Z M151.685677,242 L151.685677,234.32 C151.685677,233.951998 151.665678,233.580002 151.625677,233.204 C151.585677,232.827998 151.497678,232.484002 151.361677,232.172 C151.225677,231.859998 151.033679,231.604001 150.785677,231.404 C150.537676,231.203999 150.213679,231.104 149.813677,231.104 C149.413675,231.104 149.057679,231.211999 148.745677,231.428 C148.433676,231.644001 148.169678,231.939998 147.953677,232.316 C147.737676,232.692002 147.569678,233.123998 147.449677,233.612 C147.329677,234.100002 147.269677,234.607997 147.269677,235.136 L147.269677,242 L145.685677,242 L145.685677,233.096 C145.685677,232.839999 145.681677,232.564001 145.673677,232.268 C145.665677,231.971999 145.657677,231.684001 145.649677,231.404 C145.641677,231.123999 145.633677,230.868001 145.625677,230.636 C145.617677,230.403999 145.605677,230.224001 145.589677,230.096 L147.125677,230.096 C147.157678,230.400002 147.181677,230.767998 147.197677,231.2 C147.213677,231.632002 147.221677,232.039998 147.221677,232.424 L147.269677,232.424 C147.493679,231.623996 147.861675,230.972003 148.373677,230.468 C148.88568,229.963997 149.525674,229.712 150.293677,229.712 C150.933681,229.712 151.449675,229.847999 151.841677,230.12 C152.233679,230.392001 152.533676,230.747998 152.741677,231.188 C152.949678,231.628002 153.089677,232.123997 153.161677,232.676 C153.233678,233.228003 153.269677,233.775997 153.269677,234.32 L153.269677,242 L151.685677,242 Z" id="Addon" fill="#4F4F4F" fill-rule="nonzero"></path>
        </g>
    </g>
</svg>